/vscmnt/brussel_pixiu_data/_data_brussel/112/vsc11236/PredSimResults/SUBJ04opt3D/expIG/worker_15.mot
version=1
nRows=4
nColumns=50
inDegrees=yes
endheader
                time	         pelvis_tilt	         pelvis_list	     pelvis_rotation	           pelvis_tx	           pelvis_ty	           pelvis_tz	       hip_flexion_r	     hip_adduction_r	      hip_rotation_r	        knee_angle_r	       ankle_angle_r	         mtp_angle_r	       hip_flexion_l	     hip_adduction_l	      hip_rotation_l	        knee_angle_l	       ankle_angle_l	         mtp_angle_l	    lumbar_extension	      lumbar_bending	     lumbar_rotation	 ercspn_r/activation	 intobl_r/activation	 extobl_r/activation	    abd_r/activation	    add_r/activation	hamstrings_r/activation	bifemsh_r/activation	glut_max_r/activation	iliopsoas_r/activation	rect_fem_r/activation	  vasti_r/activation	gastroc_r/activation	 soleus_r/activation	tib_ant_r/activation	 ercspn_l/activation	 intobl_l/activation	 extobl_l/activation	    abd_l/activation	    add_l/activation	hamstrings_l/activation	bifemsh_l/activation	glut_max_l/activation	iliopsoas_l/activation	rect_fem_l/activation	  vasti_l/activation	gastroc_l/activation	 soleus_l/activation	tib_ant_l/activation	
          0.74946971	         -6.14025558	         -1.46807952	          5.15293519	          1.49893941	          0.87480097	         -0.00402313	         36.83045873	          0.46008669	         -5.53654604	        -24.43901871	         10.95062287	          0.47422647	        -16.19571612	         -0.47381251	         -3.71343084	        -14.25819128	         -3.87845243	         38.73616586	        -12.79160507	          3.34254849	        -13.33427958	          0.14460219	          0.08806843	          0.02279445	          0.00999999	          0.35895375	          0.44255133	          0.04622751	          0.00999999	          0.22399665	          0.01730992	          0.10197933	          0.01124911	          0.01124911	          0.52031129	          0.11424275	          0.00999999	          0.00999999	          0.01801322	          0.23548755	          0.05031713	          0.22304488	          0.01275936	          0.82039227	          0.01000000	          0.01685790	          0.20061853	          0.11540581	          0.00999999	
          0.75696440	         -6.10287916	         -1.67630579	          4.93941284	          1.51621206	          0.87202691	         -0.00351062	         36.42777847	          1.13122195	         -4.88441815	        -24.63656294	         10.54570531	          0.46528433	        -15.95697893	         -0.82798753	         -4.12274497	        -16.76978860	         -4.36444969	         39.13522460	        -12.48313319	          3.79460786	        -13.37719080	          0.12854538	          0.07828920	          0.02026333	          0.00999999	          0.37220311	          0.39340986	          0.04109435	          0.01000000	          0.19912378	          0.01538781	          0.19003114	          0.00999999	          0.00999999	          0.50477158	          0.10155709	          0.00999999	          0.00999999	          0.01601301	          0.28326088	          0.04472991	          0.19827770	          0.01134255	          0.72929487	          0.00999999	          0.01498598	          0.17834160	          0.10259100	          0.00999999	
          0.76445910	         -6.05773923	         -1.88548673	          4.71550862	          1.53354917	          0.86911144	         -0.00295867	         36.00405534	          1.77750689	         -4.19378328	        -25.65761564	         10.17629943	          0.39866943	        -15.49406752	         -1.20902925	         -4.52990684	        -19.69991611	         -4.88128392	         39.26180507	        -12.17399602	          4.24005843	        -13.37427441	          0.11427154	          0.06959587	          0.01801326	          0.01000000	          0.36742321	          0.34972513	          0.03653118	          0.01203039	          0.17701282	          0.01367912	          0.29356682	          0.01601302	          0.02279442	          0.50525524	          0.09028006	          0.01423491	          0.01000003	          0.01423491	          0.39840509	          0.08585983	          0.17626069	          0.01612232	          0.64831304	          0.00999999	          0.01332192	          0.15853832	          0.09119916	          0.00999999	
          0.77195380	         -6.01007310	         -2.13712404	          4.48911272	          1.55093528	          0.86614980	         -0.00239239	         35.40692664	          2.43995617	         -3.52045441	        -26.68118448	         10.31396374	          0.35476124	        -14.81208174	         -1.66321253	         -4.94577108	        -22.99518930	         -5.50290705	         39.07128392	        -11.85989531	          4.72746406	        -13.32194343	          0.10158268	          0.07396271	          0.01601305	          0.11992533	          0.32662407	          0.31089121	          0.03247475	          0.04573966	          0.15735709	          0.01216018	          0.31737626	          0.01423492	          0.02026329	          0.59339324	          0.08025525	          0.01265425	          0.01124908	          0.01265425	          0.35416568	          0.07632585	          0.17348459	          0.01433208	          0.57632353	          0.00999999	          0.01184264	          0.14093402	          0.08107229	          0.00999999	
